# Blender 4.1.1
# www.blender.org
mtllib test_scene.mtl
o Cube
v 1.000000 1.000000 -1.000000
v 1.000000 -1.000000 -1.000000
v 1.000000 1.000000 1.000000
v 1.000000 -1.000000 1.000000
v -1.000000 1.000000 -1.000000
v -1.000000 -1.000000 -1.000000
v -1.000000 1.000000 1.000000
v -1.000000 -1.000000 1.000000
v 0.500000 0.000000 -1.000000
v 0.500000 -1.000000 -1.000000
v -0.500000 0.000000 -1.000000
v -0.500000 -1.000000 -1.000000
v 0.500000 0.000000 -4.370533
v 0.500000 -1.000000 -4.370533
v -0.500000 0.000000 -4.370533
v -0.500000 -1.000000 -4.370533
v 0.500000 0.000000 -5.370533
v 0.500000 -1.000000 -5.370533
v -0.500000 0.000000 -5.370533
v -0.500000 -1.000000 -5.370533
v -3.879275 0.000000 -4.370533
v -3.879275 -1.000000 -4.370533
v -3.879275 0.000000 -5.370533
v -3.879275 -1.000000 -5.370533
v -4.879275 0.000000 -4.370533
v -4.879275 -1.000000 -4.370533
v -4.879275 0.000000 -5.370533
v -4.879275 -1.000000 -5.370533
v -3.879275 0.000000 -1.228869
v -3.879275 -1.000000 -1.228869
v -4.879275 0.000000 -1.228869
v -4.879275 -1.000000 -1.228869
v -3.879275 0.000000 -0.228869
v -3.879275 -1.000000 -0.228869
v -4.879275 0.000000 -0.228869
v -4.879275 -1.000000 -0.228869
v -2.137394 0.000000 -1.228869
v -2.137394 -1.000000 -1.228869
v -2.137394 0.000000 -0.228869
v -2.137394 -1.000000 -0.228869
v -1.137394 0.000000 -1.228869
v -1.137394 -1.000000 -1.228869
v -1.137394 0.000000 -0.228869
v -1.137394 -1.000000 -0.228869
v -2.137394 0.000000 -3.437165
v -2.137394 -1.000000 -3.437165
v -1.137394 0.000000 -3.437165
v -1.137394 -1.000000 -3.437165
vn -0.0000 1.0000 -0.0000
vn -0.0000 -0.0000 1.0000
vn -1.0000 -0.0000 -0.0000
vn -0.0000 -1.0000 -0.0000
vn 1.0000 -0.0000 -0.0000
vn -0.0000 -0.0000 -1.0000
vt 0.625000 0.500000
vt 0.875000 0.500000
vt 0.875000 0.750000
vt 0.625000 0.750000
vt 0.375000 0.750000
vt 0.625000 1.000000
vt 0.375000 1.000000
vt 0.375000 0.000000
vt 0.625000 0.000000
vt 0.625000 0.250000
vt 0.375000 0.250000
vt 0.125000 0.500000
vt 0.375000 0.500000
vt 0.125000 0.750000
s 0
usemtl Material
f 1/1/1 5/2/1 7/3/1 3/4/1
f 4/5/2 3/4/2 7/6/2 8/7/2
f 8/8/3 7/9/3 5/10/3 6/11/3
f 6/12/4 2/13/4 4/5/4 8/14/4
f 2/13/5 1/1/5 3/4/5 4/5/5
f 1/1/6 2/13/6 10/13/6 9/1/6
f 12/11/3 11/10/3 15/10/3 16/11/3
f 6/11/6 5/10/6 11/10/6 12/11/6
f 2/13/1 6/12/1 12/12/1 10/13/1
f 5/2/6 1/1/6 9/1/6 11/2/6
f 15/2/1 13/1/1 17/1/1 19/2/1
f 10/13/4 12/12/4 16/12/4 14/13/4
f 11/2/1 9/1/1 13/1/1 15/2/1
f 9/1/5 10/13/5 14/13/5 13/1/5
f 20/11/6 19/10/6 17/1/6 18/13/6
f 13/1/5 14/13/5 18/13/5 17/1/5
f 19/10/6 20/11/6 24/11/6 23/10/6
f 14/13/4 16/12/4 20/12/4 18/13/4
f 22/11/5 21/10/5 29/10/5 30/11/5
f 20/12/4 16/12/4 22/12/4 24/12/4
f 16/11/2 15/10/2 21/10/2 22/11/2
f 15/2/1 19/2/1 23/2/1 21/2/1
f 26/11/3 25/10/3 27/10/3 28/11/3
f 24/12/4 22/12/4 26/12/4 28/12/4
f 23/10/6 24/11/6 28/11/6 27/10/6
f 21/2/1 23/2/1 27/2/1 25/2/1
f 29/2/1 31/2/1 35/2/1 33/2/1
f 21/2/1 25/2/1 31/2/1 29/2/1
f 25/10/3 26/11/3 32/11/3 31/10/3
f 26/12/4 22/12/4 30/12/4 32/12/4
f 34/11/2 33/10/2 35/10/2 36/11/2
f 29/2/1 33/2/1 39/2/1 37/2/1
f 32/12/4 30/12/4 34/12/4 36/12/4
f 31/10/3 32/11/3 36/11/3 35/10/3
f 39/10/2 40/11/2 44/11/2 43/10/2
f 30/11/6 29/10/6 37/10/6 38/11/6
f 34/12/4 30/12/4 38/12/4 40/12/4
f 33/10/2 34/11/2 40/11/2 39/10/2
f 42/11/5 41/10/5 43/10/5 44/11/5
f 37/2/1 39/2/1 43/2/1 41/2/1
f 42/12/4 38/12/4 46/12/4 48/12/4
f 40/12/4 38/12/4 42/12/4 44/12/4
f 46/11/6 45/10/6 47/10/6 48/11/6
f 38/11/3 37/10/3 45/10/3 46/11/3
f 37/2/1 41/2/1 47/2/1 45/2/1
f 41/10/5 42/11/5 48/11/5 47/10/5
